<svg width="100" height="136" viewBox="0 0 100 136" fill="none" xmlns="http://www.w3.org/2000/svg">
<path fill-rule="evenodd" clip-rule="evenodd" d="M77.3835 93.5866C76.2194 88.0696 72.0912 83.7886 66.539 81.6559C65.4717 81.0521 64.4372 78.461 63.0029 77.9865C62.773 77.9104 63.1359 78.5158 63.0029 78.5519C62.5285 78.6809 61.997 78.6943 61.4733 78.2287C60.5373 77.3964 60.2436 74.9649 59.6745 73.866C56.6731 68.0702 49.1792 70.3379 48.1752 76.745C47.4752 77.2015 46.4856 77.6036 45.7236 77.9714C44.9389 78.3502 44.2487 79.2675 43.4401 79.5955C42.7186 79.8882 41.5298 79.6809 40.8028 79.936C37.459 81.1094 34.6268 82.59 32.4065 85.59C31.9386 86.2227 31.4112 87.0006 30.9855 87.6397C28.7905 90.1675 27.266 93.0007 25.8618 96.0404C21.9333 104.962 20.8648 114.841 19.9061 124.454C19.9279 126.136 18.8122 130.8 20.4623 131.606C20.3637 131.709 20.3994 131.914 20.5824 131.912C24.7664 131.87 28.9407 132.245 33.0598 132.973C35.0472 133.324 37.024 133.806 39.0483 133.885C43.2506 133.856 47.4378 133.152 51.6346 133.819C56.6798 133.819 62.8113 133.671 68.424 133.456C73.6696 133.254 78.9433 133.709 84.124 132.817C84.5341 132.752 84.7343 132.252 84.6484 131.893C84.0405 129.678 83.7422 127.397 83.4011 125.13C83.469 123.675 83.3475 122.157 82.8097 120.802C81.4043 111.656 79.6023 102.57 77.3835 93.5866Z" fill="white"/>
<path fill-rule="evenodd" clip-rule="evenodd" d="M75.6906 105.608C75.5799 106.146 75.4248 106.684 75.2185 107.193C75.0198 107.684 74.7204 108.125 74.5142 108.611C74.4865 108.676 74.4412 108.726 74.3866 108.763L74.4036 108.895V108.895L74.4193 109.028C74.5222 109.919 74.6379 110.808 74.738 111.7L74.7867 112.146C74.9837 114.007 75.2948 115.86 75.5363 117.716C75.7728 119.534 76.0136 121.352 76.2709 123.168C76.5368 125.039 76.8076 126.908 77.1238 128.772C77.2573 129.56 77.3966 130.346 77.5417 131.132L77.6538 131.734C78.8077 132.012 79.123 133.621 77.9481 134.215C77.4149 134.483 76.7297 134.418 76.2902 133.997C75.8335 133.557 75.8145 132.764 75.7085 132.168L75.6064 131.615C74.8424 127.454 74.1792 123.244 73.8692 119.024C73.7895 117.934 73.7224 116.844 73.6788 115.752C73.6374 114.726 73.6572 113.699 73.6413 112.672L73.6361 112.392C73.6118 111.298 73.6319 110.205 73.6604 109.11C73.6637 108.976 73.6696 108.843 73.6763 108.709C73.6378 108.663 73.6101 108.61 73.5984 108.558L73.5832 108.489C73.5455 108.312 73.5883 108.105 73.7242 107.978C73.7828 107.232 73.86 106.487 73.8809 105.742C73.8826 105.681 73.9707 105.683 73.9758 105.742C74.0253 106.377 74.1241 107.012 74.2231 107.647C74.8596 107.136 75.33 106.292 75.6076 105.585C75.6277 105.534 75.7025 105.553 75.6906 105.608ZM60.6311 75.9587C60.7367 76.4419 60.9455 76.8757 61.2256 77.2792C61.3591 77.4722 61.5108 77.6517 61.6927 77.8019C61.8488 77.9302 62.0266 78.0141 62.1925 78.1257C62.4341 78.0879 62.6865 78.1794 62.8559 78.3572L62.8291 78.0972C62.8206 78.0133 62.9599 77.9965 62.9759 78.0778C63.7095 81.7793 64.3786 85.4832 64.9578 89.2114L65.2117 90.8579L65.4506 92.4036C65.8472 94.9792 66.2309 97.5538 66.5198 100.148C66.9047 103.611 67.2283 107.082 67.4648 110.559C67.7021 114.059 67.8481 117.563 67.9521 121.07C67.978 121.955 68.0058 122.838 68.0325 123.722L68.2117 122.665C68.3904 121.608 68.5657 120.549 68.716 119.487C69.2552 115.686 69.6863 111.858 69.8967 108.024C70.0897 104.516 70.0251 100.938 69.1329 97.5199C68.908 96.66 68.633 95.8136 68.301 94.9889C67.9789 94.187 67.5395 93.4436 67.1931 92.6534C66.7906 91.7339 66.6698 90.8665 66.877 89.8766C67.0582 89.0141 67.376 88.2029 67.4329 87.3153C67.5395 85.6677 67.0036 84.0719 66.2464 82.6299C66.0467 82.2499 65.8362 81.8749 65.6165 81.5032C64.9516 80.3799 64.2018 79.2976 63.4237 78.2599C63.3817 78.2046 63.4706 78.1433 63.5159 78.1886C64.2253 78.89 65.001 79.5796 65.6393 80.3455C65.9495 80.718 66.2522 81.098 66.539 81.4881C69.6855 82.0141 72.3891 83.9746 74.2373 86.5636C76.3347 89.5016 77.3955 93.0376 78.1805 96.5199C79.0535 100.39 79.7898 104.295 80.5738 108.184C81.3855 112.209 82.1931 116.233 83.0099 120.257C83.4158 122.254 83.8217 124.252 84.2267 126.25C84.4322 127.262 84.6478 128.271 84.8733 129.279C84.9891 129.796 85.1132 130.312 85.2205 130.83C85.3412 131.415 85.2288 131.789 84.8331 132.219C84.6871 132.378 84.4565 132.376 84.2753 132.291L84.2187 132.264L84.164 132.238C83.9398 132.128 83.7641 132.013 83.6247 131.768C83.4711 131.499 83.4468 131.2 83.3941 130.901C83.2967 130.35 83.2003 129.799 83.1031 129.247C82.9577 128.421 82.7997 127.598 82.6388 126.775L81.8318 122.662C81.6166 121.566 81.401 120.469 81.1843 119.373C80.4102 115.454 79.6354 111.535 78.8606 107.616C78.1167 103.854 77.4584 100.065 76.6115 96.3245L76.5633 96.1137L76.5144 95.9033C75.757 92.6784 74.6989 89.5589 72.779 86.8262C71.3014 84.7247 69.2494 82.848 66.8325 81.8983C67.0028 82.1433 67.1663 82.3933 67.3223 82.6484C68.3018 84.249 69.017 86.1492 68.8493 88.0552C68.7672 88.9865 68.4133 89.9017 68.4468 90.8405C68.4778 91.6744 68.9936 92.4068 69.3501 93.1323C70.1592 94.7767 70.7446 96.5242 71.122 98.3169C71.8793 101.917 71.8767 105.621 71.6159 109.275C71.3324 113.247 70.7941 117.219 70.1811 121.152C69.8666 123.17 69.4482 125.171 69.1277 127.185C68.9693 128.178 68.7537 129.169 68.565 130.158L68.4751 130.63C68.4248 130.892 68.3725 131.153 68.3122 131.411L68.275 131.566V131.594C68.2733 131.784 68.2212 131.942 68.1374 132.068C68.0225 132.436 67.88 132.795 67.6905 133.14C67.5932 133.316 67.4522 133.415 67.2988 133.451C67.1445 133.804 66.7948 134.076 66.3772 134.075L60.8852 134.054C57.6951 134.041 54.5051 134.02 51.3151 134.002C50.5101 133.998 49.7059 133.983 48.9017 133.962C48.1478 133.941 47.4249 133.851 46.6794 133.757C45.8374 133.651 45.3812 133.054 45.507 132.213C45.5347 132.027 45.5648 131.843 45.5934 131.658C45.4257 131.714 45.2261 131.688 45.0911 131.556L44.9645 131.432C44.789 131.259 44.6321 131.088 44.5208 130.856C44.406 130.618 44.3128 130.366 44.2113 130.123C43.9924 129.6 43.7795 129.075 43.5723 128.547C43.1573 127.491 42.7422 126.432 42.3563 125.366C41.5925 123.254 40.9165 121.111 40.3287 118.943C39.2804 115.075 38.5223 111.133 38.0443 107.156L37.93 106.208L37.8968 105.928C37.7155 104.386 37.5629 102.821 37.635 101.283C37.6796 100.319 37.8287 99.3489 38.1886 98.4495C38.5206 97.6198 39.033 96.9101 39.5202 96.1685L39.576 96.0829L39.632 95.9952C40.0581 95.3216 40.3972 94.6174 40.4141 93.7994C40.4314 92.9692 40.1896 92.1614 39.9193 91.3842L39.8519 91.1925L39.8067 91.0657C39.2317 89.4595 38.5773 87.876 38.7931 86.1282C39.1119 83.5544 40.6716 81.4797 42.634 79.8799C40.8888 80.2256 39.1614 80.9084 37.6368 81.7742C35.8362 82.7977 34.2152 84.1484 32.8173 85.6727C30.1757 88.5535 28.2897 92.0099 26.7459 95.5787C25.1299 99.3136 23.9315 103.227 23.0284 107.192C22.1202 111.179 21.5122 115.231 21.097 119.298C20.89 121.322 20.7272 123.351 20.5923 125.382C20.5235 126.422 20.4715 127.464 20.391 128.502C20.3105 129.54 20.2744 130.594 20.0211 131.604C19.9029 132.075 19.1054 132.122 19.0199 131.604C18.8303 130.446 18.8833 129.249 18.9362 128.076L18.941 127.97C18.9931 126.802 19.061 125.635 19.1414 124.468C19.3059 122.083 19.5255 119.701 19.8123 117.327C20.8178 108.993 22.672 100.703 26.309 93.0955C28.0214 89.5125 30.2194 86.0309 33.2769 83.4437C34.7326 82.2129 36.3738 81.2305 38.1424 80.5192C39.7241 79.8824 41.3308 79.5813 43.0114 79.5821C43.8542 78.9361 44.759 78.3732 45.6629 77.8924C45.7174 77.8631 45.7745 77.9336 45.7293 77.9789C45.7058 78.0016 45.6831 78.025 45.6597 78.0469C45.762 78.0536 45.8675 78.1014 45.9623 78.2012C46.2945 78.5493 46.5746 78.9848 46.8252 79.4369C47.2068 79.9135 47.5707 80.4058 47.9515 80.8773C48.5611 81.6323 49.185 82.3765 49.8166 83.1147C50.8772 84.3554 51.9723 85.5727 53.1144 86.7409L53.3052 86.9352C53.8971 87.5351 54.4968 88.2532 55.197 88.728L55.2343 88.7529C55.5297 88.9454 55.7392 88.9803 55.9911 88.6928C56.2201 88.4311 56.4107 88.1274 56.6067 87.8388L56.652 87.7725C57.6524 86.3187 58.5799 84.8111 59.4194 83.2591C59.802 82.5528 60.166 81.8362 60.5113 81.1118L60.6144 80.8942C60.8022 80.4948 61.006 80.1031 61.1611 79.6919C61.1971 79.5955 61.2323 79.499 61.2667 79.4034C60.7384 79.0569 60.3293 78.3069 60.1808 77.7197C60.0265 77.1098 60.1045 76.4839 60.3795 75.9261C60.4315 75.8212 60.6059 75.8471 60.6311 75.9587ZM34.5684 100.743C34.4953 103.062 34.451 105.383 34.3419 107.7L34.3042 108.491C34.4744 108.681 34.5742 108.9 34.4945 109.2C34.4635 109.315 34.3721 109.419 34.258 109.458L34.2224 110.193C34.0606 113.503 33.8709 116.805 33.5242 120.106C33.0907 124.236 32.5892 128.361 32.0886 132.484C32.0174 133.068 31.6114 133.531 30.9799 133.445C30.341 133.359 30.0819 132.803 30.1657 132.223C30.4953 129.949 30.8122 127.673 31.0899 125.391L31.406 122.791C31.8024 119.541 32.2082 116.292 32.6757 113.053C32.871 111.699 33.074 110.346 33.2777 108.992L33.2065 108.9C32.9154 108.522 32.6144 108.152 32.3167 107.779C31.7448 107.061 31.1804 106.349 30.6563 105.597C30.6302 105.559 30.6831 105.504 30.7208 105.533C31.4554 106.075 32.1507 106.656 32.8501 107.246L33.4623 107.764C33.8145 105.426 34.1633 103.087 34.4744 100.743C34.482 100.684 34.57 100.68 34.5684 100.743ZM45.1355 78.5519C44.6935 78.9688 44.2416 79.3766 43.7962 79.791L43.6331 79.9435L43.4707 80.0967C42.688 80.8393 41.9381 81.6122 41.3132 82.4999C40.166 84.1299 39.4825 86.1172 39.9596 88.1073C40.3555 89.7557 41.2637 91.2499 41.5078 92.9395C41.6301 93.786 41.5707 94.6366 41.2519 95.436C40.9265 96.2516 40.4066 96.9504 39.9395 97.6861C38.9248 99.2851 38.7864 101.04 38.8871 102.892C38.9928 104.827 39.2149 106.762 39.4893 108.679C40.0443 112.564 40.8812 116.408 41.989 120.172C42.5434 122.057 43.1983 123.902 43.85 125.754C44.1744 126.676 44.5527 127.576 44.9426 128.472C45.148 128.944 45.3586 129.413 45.5724 129.881C45.4935 129.22 45.4935 128.541 45.455 127.884C45.3996 126.943 45.3292 126.003 45.2646 125.063C45.133 123.154 45.0156 121.244 44.9108 119.334C44.5393 112.522 44.2659 105.704 44.286 98.8808C44.2961 95.4688 44.3657 92.0569 44.5125 88.6483C44.5813 87.0431 44.7145 85.4395 44.8349 83.8366L44.8605 83.4932C44.967 82.0544 45.0944 80.6123 45.3132 79.1861C45.2485 79.0399 45.1922 78.8918 45.1505 78.7399L45.1355 78.6828L45.1464 78.6844C45.1364 78.6399 45.133 78.5955 45.1355 78.5519ZM48.9579 72.6895C48.967 72.65 49.0232 72.6534 49.0333 72.6895C49.2823 73.5284 49.1943 74.4512 48.9797 75.2952C48.864 75.7524 48.6996 76.1962 48.5008 76.624L48.4313 76.7738C48.261 77.1381 48.0693 77.5136 47.7376 77.7406C47.5994 77.8354 47.3519 77.8413 47.2135 77.7406L47.1429 77.6871C47.1313 77.678 47.1199 77.6688 47.1087 77.6593C46.9796 77.551 46.9158 77.3119 46.9754 77.1542C47.1288 76.7473 47.4769 76.4487 47.7175 76.0863C47.9306 75.7641 48.1193 75.4244 48.276 75.0712C48.614 74.3069 48.7658 73.4957 48.9579 72.6895Z" fill="#0C0C0C"/>
<path fill-rule="evenodd" clip-rule="evenodd" d="M68.0159 52.1144C65.0656 44.3495 59.7475 38.6644 50.7818 42.2352C50.5247 42.06 50.189 42.013 49.8674 42.2182C44.9835 45.286 41.4665 50.2046 39.9424 55.7508C39.0148 55.9272 38.1135 56.2349 37.3084 56.7395C35.5588 57.8363 34.3816 59.5814 33.2782 61.2811C32.9464 61.7921 33.2536 62.638 33.8772 62.7541C34.1481 62.8046 34.4165 62.8346 34.6834 62.8425C34.6185 63.0785 34.5329 63.3065 34.424 63.5156C34.0296 64.2727 34.7747 65.0765 35.473 64.8695C35.5505 64.9105 35.6317 64.9442 35.7158 64.9696C35.7253 65.3984 35.9456 65.9725 36.3816 66.0592C37.0867 66.2105 38.0238 65.6707 37.8574 64.8817C38.0704 64.9192 38.2826 64.9239 38.4895 64.8979C38.5127 65.3088 38.5054 65.7374 38.5621 66.1164C38.7475 67.9023 40.5312 69.102 42.2322 68.5587C42.3365 69.1151 42.459 69.897 43.0069 70.1989C43.6474 71.9964 44.7534 74.0478 46.565 74.8669C46.4037 75.2802 46.4912 75.7831 46.9769 76.0597C50.2928 77.9509 54.2728 78.5908 58.0216 77.8877C59.5199 77.7984 60.9796 77.4598 62.3807 76.7382C63.4025 76.212 64.3418 75.5438 65.2587 74.855C66.1762 74.1659 67.1571 73.4949 67.8893 72.6002C68.6847 71.6285 69.0549 70.4852 69.2952 69.2683C70.3962 63.7449 70.0159 58.3215 68.0159 53.0599C65.5403 46.5469 70.4907 58.6277 68.0159 52.1144Z" fill="white"/>
<path fill-rule="evenodd" clip-rule="evenodd" d="M53.7528 40.7221C55.2627 40.6155 56.8001 40.8701 58.238 41.3256C60.5312 42.0518 62.6373 43.3333 64.3676 45.0017C66.1508 46.7211 67.4697 48.8409 68.2716 51.1823C69.2387 54.006 69.3835 57.0209 69.6557 59.9685C69.7932 61.4577 70.0198 62.9242 70.2553 64.399L70.2926 64.632C70.5227 66.0689 70.6522 67.5221 70.3343 68.9568C69.8058 71.3412 68.2215 73.3652 66.3409 74.8607C62.4778 77.9331 56.4638 79.8061 51.9659 76.979C51.27 76.5416 51.9294 75.4231 52.6087 75.8789C53.0868 76.1997 53.5933 76.481 54.1365 76.6753C56.4059 77.4866 58.8983 77.1976 61.1412 76.4429C63.3515 75.6992 65.4724 74.4425 67.1033 72.7657C68.8164 71.0044 69.7658 68.8288 69.6286 66.3533C69.5468 64.8804 69.2114 63.4347 69.0252 61.9738C68.8603 60.6799 68.7614 59.379 68.6475 58.0799L68.6057 57.6126C68.364 54.9657 68.017 52.2462 66.8132 49.8436C65.8005 47.8223 64.3178 46.0241 62.535 44.6353C60.6684 43.1814 58.439 42.1645 56.0998 41.7852C53.349 41.3393 50.7158 42.1502 48.4212 43.66C46.3861 44.9989 44.6364 46.7882 43.2948 48.8184C42.6443 49.8028 42.09 50.854 41.6114 51.9321C41.1604 52.9479 40.8495 54.0125 40.4868 55.0595C40.7853 55.0506 41.0887 55.0621 41.3968 55.0961C42.977 55.2713 44.4493 56.0906 45.3866 57.3825C46.5321 58.9611 46.2225 60.8988 46.6699 62.6941C46.7045 62.8335 46.6456 62.9699 46.5263 63.047C45.848 63.4856 44.9401 63.5002 44.2835 63.0063C43.7137 62.5777 43.4462 61.8028 43.6769 61.1257C43.707 61.0374 43.8355 61.053 43.8391 61.1477C43.8824 62.2999 44.9511 63.1872 45.9986 62.6389C45.5492 61.0909 45.7857 59.3619 44.8667 57.9636C43.2401 55.4888 39.8739 55.3865 37.5097 56.7816C36.2654 57.5157 35.2805 58.6196 34.5472 59.8543L34.3359 60.2127C34.0548 60.6917 33.7571 61.2334 33.6988 61.7608C33.6651 62.0652 33.7774 62.3512 34.1264 62.1978C34.4088 62.0738 34.6274 61.7845 34.7951 61.5357C35.0812 61.1115 35.7385 61.478 35.5022 61.9298L35.4942 61.9445C35.1503 62.554 34.9386 63.2255 34.8998 63.9253L34.8899 64.119C34.8834 64.2603 34.8787 64.461 34.9086 64.4683C34.9444 64.4771 35.1932 64.1898 35.2347 64.15C35.4342 63.9582 35.6398 63.8015 35.9176 63.7504C36.2828 63.6835 36.6513 64.1355 36.3343 64.4319L36.3211 64.4438C36.0381 64.6898 36.0507 65.1805 36.3632 65.4107C36.8043 65.7354 37.3474 65.2053 37.4114 64.7689L37.4136 64.7528C37.4702 64.2812 38.1249 64.2645 38.1604 64.7528C38.2377 65.8123 36.9767 66.7004 36.0172 66.1659C35.6379 65.9546 35.3967 65.5678 35.3211 65.1532C35.2 65.2172 35.0694 65.2616 34.9313 65.2738C34.4816 65.3137 34.1619 64.9974 34.0892 64.5729C34.0045 64.0784 34.0547 63.5488 34.185 63.0352C33.9408 63.0941 33.6839 63.0716 33.4257 62.9226C32.6446 62.4716 32.8689 61.4686 33.1638 60.7914C34.423 57.901 37.0317 55.2783 40.2636 55.07C40.2813 54.5601 40.3504 54.0779 40.4635 53.5673C41.5689 48.5724 45.1501 43.9472 49.8123 41.7855C51.0581 41.2078 52.3793 40.8192 53.7528 40.7221ZM41.5266 60.6748L41.5709 60.6648C42.0746 60.5563 43.4001 60.4287 43.2404 61.2767C43.2328 61.3165 43.1749 61.3116 43.1646 61.2767C43.0081 60.7435 41.9451 61.1699 41.6347 61.2982C41.2069 61.4751 40.7848 61.736 40.4354 62.0392C39.6705 62.7033 39.1578 63.6392 39.0798 64.6557C39.0025 65.664 39.2949 66.7531 40.022 67.4825C40.3784 67.8399 40.8333 68.0826 41.3444 68.1005C41.8035 68.1164 42.3108 67.7589 42.7344 67.9683C42.818 68.0095 42.8841 68.1229 42.8766 68.2162C42.8623 68.3928 42.7833 68.5303 42.6658 68.6369C43.375 69.9299 43.9555 71.2986 44.8603 72.4744C45.3143 73.0643 45.8288 73.6106 46.4114 74.0756C46.6883 74.2966 46.9893 74.4908 47.2998 74.6613C47.6636 74.8614 47.9784 74.9866 48.238 75.3255C48.4594 75.6145 48.2379 76.1733 47.8729 76.2231C47.0135 76.3403 46.1782 75.6451 45.5473 75.1244C44.9169 74.6041 44.3721 73.9623 43.9218 73.2814C43.0572 71.9737 42.4658 70.4311 42.2293 68.8705C41.9547 68.9575 41.6456 68.9841 41.4131 68.9846C40.7943 68.9861 40.2036 68.7634 39.7173 68.3871C37.9373 67.0099 37.7395 64.1821 38.9956 62.3989C39.5967 61.5456 40.5101 60.9152 41.5266 60.6748ZM41.5378 63.9545C41.9505 63.9183 42.3629 63.9835 42.7509 64.1242L42.9108 64.1822C43.2486 64.3058 43.6082 64.4511 43.8522 64.7044C44.225 65.0917 43.8538 65.7626 43.3228 65.6142C42.7357 65.4501 42.2585 64.9555 41.6716 64.748C41.147 64.5626 40.5527 64.5889 40.0872 64.9082C40.0257 64.9504 39.9448 64.8672 39.985 64.8059C40.3412 64.2634 40.9034 64.0101 41.5378 63.9545Z" fill="#0C0C0C"/>
<path fill-rule="evenodd" clip-rule="evenodd" d="M55.7301 67.248C57.1677 67.0735 58.5611 67.5138 59.9664 67.7357C60.7084 67.8528 61.4513 67.9402 62.2022 67.9728C62.3532 67.9794 62.5043 67.9832 62.6554 67.9863C62.6695 67.8532 62.744 67.731 62.9053 67.6578C63.236 67.5078 63.5007 67.4402 63.8638 67.4547C64.1962 67.4678 64.5297 67.502 64.857 67.5619C65.4513 67.6709 66.0482 67.9183 66.4829 68.348C67.489 69.3424 67.3359 70.9396 66.5585 72.0227C64.9524 74.2608 62.0211 74.3646 59.5105 74.3354L59.2788 74.3324C56.9928 74.2997 53.7223 74.6407 52.6838 72.0389C52.3019 71.0821 52.3549 69.9731 52.8225 69.0554C53.3802 67.9609 54.5543 67.3908 55.7301 67.248ZM62.8707 70.9744L62.8502 70.9752C61.7962 71.0159 60.7424 71.0445 59.6879 71.0631C59.7195 71.334 59.7517 71.605 59.7885 71.8753C59.8174 72.0881 59.8483 72.3006 59.8805 72.5128C59.8942 72.6027 59.9442 72.7422 59.9301 72.8312L59.925 72.8664V72.8664C59.9791 72.8909 60.0282 72.9303 60.0648 72.9876C60.0775 73.0074 60.0867 73.0274 60.0959 73.0473C60.9147 73.0537 61.7957 73.0378 62.6303 72.889L62.632 72.8708V72.8708C62.6472 72.7642 62.6915 72.6924 62.7504 72.6431C62.8091 72.303 62.8037 71.9405 62.8264 71.6031C62.8405 71.3934 62.8559 71.184 62.8707 70.9744ZM58.8825 71.0775C58.1228 71.0904 57.3628 71.1004 56.6033 71.0911L56.2586 71.0858V71.0858C56.3314 71.4765 56.4106 71.866 56.4765 72.2594C56.5452 72.6694 56.1844 72.93 55.8722 72.9195C55.9073 72.9252 55.9423 72.9312 55.9773 72.9361C56.9528 73.0741 57.9656 73.0375 58.9556 73.0364C58.9023 72.7254 58.9239 72.3746 58.9159 72.115L58.9144 72.0748C58.8992 71.7422 58.8886 71.4098 58.8825 71.0775ZM53.7225 71.0058C53.7488 71.209 53.8001 71.4078 53.8769 71.593C54.2011 72.3752 54.9445 72.7403 55.7311 72.894C55.5946 72.8468 55.4863 72.7336 55.4589 72.5396C55.3907 72.0572 55.3662 71.5667 55.3644 71.0769C54.8162 71.0718 54.2643 71.0601 53.7225 71.0058ZM65.7294 70.8387C65.3391 70.9309 64.8856 70.8886 64.5027 70.906C64.1439 70.9223 63.785 70.9365 63.4263 70.9511C63.4432 71.1961 63.4597 71.441 63.4776 71.6858C63.5007 72.0023 63.5029 72.3368 63.5635 72.6519C64.2854 72.4054 64.9324 72.0101 65.4177 71.378C65.5386 71.2205 65.6469 71.0357 65.7294 70.8387ZM55.5652 68.5315C54.9155 68.6854 54.3006 69.0105 53.9702 69.6052C53.774 69.9581 53.6878 70.3764 53.7043 70.7886C54.2534 70.7246 54.812 70.7004 55.3679 70.6803C55.3697 70.5802 55.3721 70.4802 55.3751 70.3803L55.3836 70.1245C55.3988 69.6366 55.4064 69.0238 55.5652 68.5315ZM58.9279 68.591L58.6419 68.5589C57.8475 68.4683 57.0536 68.3733 56.2591 68.4277C56.1442 68.4357 56.0274 68.4482 55.9105 68.4654C56.0509 68.9723 56.0391 69.5676 56.0977 70.0694C56.1204 70.2634 56.149 70.4558 56.1807 70.6475L56.3186 70.6411V70.6411C57.171 70.5948 58.0243 70.5664 58.8774 70.5326C58.8773 70.3723 58.8782 70.212 58.8808 70.0516L58.8839 69.8912C58.8936 69.4815 58.8672 69.02 58.9279 68.591ZM62.9171 68.526C62.0851 68.6603 61.2252 68.6889 60.4079 68.6899C60.0815 68.6903 59.7552 68.6702 59.4291 68.6413C59.4503 68.815 59.4614 68.9907 59.4774 69.162C59.5096 69.5081 59.5464 69.8537 59.5864 70.199L59.6221 70.5011V70.5011C60.6706 70.4536 61.7192 70.4022 62.7675 70.3489L62.9154 70.341V70.341L62.9569 69.7603C62.9851 69.3732 63.0162 68.9861 63.06 68.6007L63.0271 68.5888V68.5888C62.9885 68.5729 62.9518 68.551 62.9171 68.526ZM63.2784 68.6701C63.3243 69.2175 63.3496 69.7672 63.3834 70.3155L64.0745 70.2786C64.1897 70.2723 64.3048 70.2659 64.42 70.2593C64.8678 70.2335 65.4433 70.0978 65.8861 70.2244C65.9199 69.8217 65.8048 69.4294 65.4416 69.1589C64.8038 68.6838 63.9918 68.853 63.2784 68.6701ZM60.9172 63.7763C61.9463 63.1867 64.5285 62.5841 64.692 64.4369C64.7672 65.2895 64.1336 65.9959 63.3937 66.3112L63.3659 66.3228C62.672 66.6082 61.442 66.9305 60.8415 66.3116C60.3417 65.7965 61.0046 64.873 61.6257 65.2949C61.9448 65.5117 62.6166 65.352 62.9728 65.2488L62.9951 65.2423C63.3794 65.1293 63.8918 64.7677 63.7329 64.2943C63.5922 63.8755 62.9938 63.799 62.6191 63.7854C62.0596 63.7653 61.5152 63.8953 60.9609 63.9376C60.8731 63.9443 60.846 63.8171 60.9172 63.7763ZM65.1802 60.7971C66.577 60.7316 67.4459 62.2573 67.1247 63.5074C67.0692 63.7231 66.828 63.9348 66.5952 63.9106L66.5365 63.9052C66.5067 63.9023 66.4768 63.8985 66.4493 63.8909C66.2282 63.8297 66.0301 63.5997 66.0462 63.3612L66.0504 63.2918C66.083 62.7012 66.019 62.0209 65.3175 61.8779C64.7225 61.7565 64.3903 62.3294 64.3833 62.8568C64.382 62.9504 64.2768 63.0158 64.194 62.9654C63.7639 62.7036 63.6894 62.1827 63.8537 61.7341C64.0619 61.1658 64.5831 60.825 65.1802 60.7971ZM54.8149 61.1243C55.8314 60.785 56.928 61.327 57.4202 62.226C57.5928 62.276 57.7652 62.4092 57.7413 62.613C57.7066 62.9063 57.6545 63.0912 57.4512 63.3136C57.1332 63.6615 56.5378 63.4837 56.4056 63.0554L56.4 63.036C56.2499 62.4824 55.6407 62.1172 55.0858 62.3109C54.4376 62.5373 54.4564 63.2222 54.0017 63.6212C53.9483 63.6681 53.8842 63.6755 53.8201 63.6446C53.3372 63.4111 53.424 62.7084 53.5962 62.3062C53.822 61.7785 54.2609 61.3091 54.8149 61.1243ZM53.4306 58.0364C54.2542 57.1956 56.4021 56.3821 56.9655 57.9347C57.0729 58.2304 56.8443 58.6291 56.5366 58.6904C56.0326 58.7908 55.5854 58.5719 55.0848 58.6112C54.6795 58.6431 54.2568 58.7786 53.9327 59.0298C53.0353 59.7254 52.8379 60.902 52.2125 61.7874C52.1821 61.8305 52.123 61.8124 52.1173 61.7616C51.9749 60.4726 52.5284 58.9572 53.4306 58.0364ZM64.1726 57.2087C64.7192 57.0156 65.3382 57.0322 65.8876 57.2035C66.4411 57.3761 66.9492 57.704 67.3407 58.1323C67.5183 58.3268 67.6827 58.5414 67.8145 58.7698C67.8845 58.8909 67.9581 59.141 68.0377 59.2899C68.4683 59.5386 68.6523 60.1053 68.2668 60.5084L68.2495 60.5261L68.1979 60.5773C67.9907 60.7825 67.6782 60.8714 67.3954 60.7894C66.7624 60.6062 66.6855 60.1075 66.4664 59.5781C66.3216 59.2285 66.0736 58.9191 65.773 58.6918C65.0625 58.1549 63.8974 57.9838 63.0419 58.2368C62.9964 58.2504 62.9429 58.1923 62.9754 58.1502C63.1375 57.9401 63.2309 57.7677 63.4479 57.5983C63.6682 57.4263 63.9086 57.302 64.1726 57.2087Z" fill="#0C0C0C"/>
<path fill-rule="evenodd" clip-rule="evenodd" d="M66.6361 51.217C67.1208 51.0508 67.5074 51.5551 67.4143 51.9946C67.3045 52.5122 66.7644 52.9277 66.4063 53.2925C66.0306 53.6768 65.6474 54.0534 65.2499 54.4159C64.491 55.1089 63.7044 55.7615 62.875 56.3697L62.6214 56.5556C61.8611 57.1121 61.1031 57.6556 60.2888 58.1373C59.8477 58.3974 59.4024 58.6491 58.9512 58.8915C58.7903 58.9779 58.5939 59.1112 58.3919 59.2103C59.1306 59.7808 59.6992 60.6516 59.8225 61.4628C60.1277 63.4779 58.8296 65.3454 56.998 66.0878C56.0849 66.4578 55.0685 66.5652 54.0924 66.4536C53.0995 66.3403 52.0931 66.0466 51.4483 65.233C50.8755 64.5107 50.6692 63.5888 50.6281 62.6835C50.6088 62.2539 50.613 61.831 50.7036 61.4511C50.3086 61.4544 49.9136 61.4528 49.522 61.457C48.5543 61.4662 47.5847 61.4705 46.6163 61.4435C45.6175 61.415 44.6237 61.3706 43.6283 61.2817C43.1914 61.2422 42.757 61.1776 42.3225 61.1155C41.9008 61.056 41.4354 61.0333 41.0413 60.8605C41.0144 60.8496 41.0255 60.811 41.0488 60.8034C41.4689 60.6675 41.9461 60.6918 42.3838 60.665L42.8105 60.6391C43.1659 60.6179 43.521 60.5984 43.8774 60.5869C44.7007 60.5598 45.5233 60.5532 46.3465 60.5391L46.6993 60.5325C47.6679 60.5132 48.6364 60.5023 49.605 60.4712C50.0067 60.4586 50.4092 60.4352 50.8126 60.4133C50.8596 60.3067 50.9284 60.2094 50.9946 60.1147C51.1925 59.8311 51.4441 59.5811 51.7049 59.3546C52.239 58.8881 52.8403 58.5417 53.5112 58.3093C54.176 58.0798 55.1484 57.966 55.8517 57.9808C56.555 57.9956 57.5574 58.0948 57.8795 58.6701C57.913 58.7296 58.526 58.6147 58.708 58.4753C59.1332 58.1508 59.5508 57.8169 59.9608 57.4746C60.7223 56.8378 61.5055 56.2112 62.2268 55.53C62.9706 54.8269 63.7086 54.1122 64.4163 53.3739C64.7719 53.0039 65.1266 52.6331 65.4713 52.2539C65.8235 51.8672 66.1262 51.3907 66.6361 51.217Z" fill="#0C0C0C"/>
</svg>
