<svg width="100" height="136" viewBox="0 0 100 136" fill="none" xmlns="http://www.w3.org/2000/svg">
<path fill-rule="evenodd" clip-rule="evenodd" d="M49.9602 70.144C48.8332 69.8319 47.5376 69.8682 46.3813 69.948C45.207 70.0291 43.947 70.1682 42.8451 70.6068C41.8872 70.9881 41.0795 71.6293 40.5873 72.5481C40.1826 73.3034 39.9928 74.1317 39.8739 74.9731C39.8253 75.3174 39.7846 75.6625 39.7458 76.008L39.6662 76.7267C39.635 77.0015 39.6078 77.2076 39.5532 77.5142C39.4019 78.3623 39.1914 79.0708 38.7212 79.6879C37.5827 81.1816 35.7236 81.6816 34.033 82.3192C32.9512 82.7272 32.0945 83.4611 31.8569 84.6404C31.6276 85.778 22.9089 95.3226 22.053 96.1272L22.0295 96.1489C21.3655 96.7469 21.4437 97.871 21.3508 98.6917C21.2512 99.5717 21.1564 100.452 21.0665 101.333C20.8838 103.123 20.721 104.914 20.5782 106.708C20.0198 113.72 19.7665 120.758 19.8203 127.793L19.8237 128.191C19.832 129.084 19.8254 129.98 19.8654 130.872C19.9039 131.729 20.1632 132.587 20.9572 133.035C21.6928 133.45 22.623 133.413 23.4451 133.455L23.4943 133.457C24.3765 133.506 25.2589 133.545 26.1418 133.578C29.73 133.711 33.3215 133.725 36.9117 133.709C44.0342 133.676 51.1638 133.519 58.2796 133.918C60.0935 134.02 65.8762 133.402 67.6843 133.578C69.4126 133.746 67.9297 134.594 68.9974 134.538C72.5086 134.355 75.8391 133.571 79.2032 132.627C79.6234 132.509 79.9448 132.101 79.9395 131.66C79.877 126.816 79.7403 121.974 79.5267 117.134C79.3365 112.823 79.0857 108.515 78.7747 104.211C78.6394 102.341 78.4928 100.471 78.3348 98.6015L78.2664 97.8006C78.1772 96.7677 78.1259 95.7159 77.9229 94.6973C77.722 93.69 77.2664 92.8164 76.6057 92.0358C76.0129 91.3356 69.3009 85.8537 67.6843 84.8159C66.1371 83.8224 64.5123 82.9843 62.9239 82.0636C62.263 81.6806 61.6283 81.8184 61.0638 81.3482C60.7661 81.1003 56.4475 79.4302 55.2823 78.8791L55.248 78.8628C54.3562 78.4348 53.5355 77.9707 52.9192 77.2306C52.7127 76.9825 52.3076 75.4195 52.3068 74.9201C52.3054 74.028 52.373 73.0882 52.1039 72.224C51.7822 71.1906 51.0068 70.4337 49.9602 70.144ZM48.0495 93.1467L54.9504 106.59H50.4631L53.6796 114.06H46.6159L49.1216 124.523L34.7921 106.59H40.1693L34.7921 99.5302H38.5216L34.7921 93.551L48.0495 93.1467Z" fill="white"/>
<path fill-rule="evenodd" clip-rule="evenodd" d="M24.8681 100.706C24.884 100.722 24.9008 100.738 24.9167 100.755C24.8983 100.729 24.8823 100.702 24.8681 100.675V100.706ZM38.2795 96.7902C38.8992 97.5823 39.555 99.1938 40.1572 100C40.2435 100.116 40.3282 100.232 40.4121 100.348C40.662 100.698 40.3282 101.233 39.9173 101.211C39.0963 101.167 38.2761 101.106 37.4559 101.044C39.1407 102.922 40.5396 105.255 42.0869 107.245C42.1917 107.378 42.2948 107.513 42.398 107.647C42.7896 108.158 42.3971 108.389 41.8621 108.252C41.7514 108.223 41.6407 108.195 41.53 108.167C40.7518 107.967 39.9743 107.768 39.1961 107.569C38.7659 107.458 38.3331 107.321 37.8971 107.237C37.7176 107.202 37.5457 107.231 37.3763 107.24C37.4576 107.364 37.5717 107.588 37.5943 107.622C37.8484 108.018 38.1042 108.413 38.3617 108.805C38.8632 109.569 39.3672 110.331 39.8896 111.081C41.9275 114.002 44.1256 116.79 46.3043 119.605C46.8528 120.313 47.4088 121.013 47.974 121.707C47.9715 121.703 47.9699 121.699 47.9673 121.695C47.4583 120.703 46.9492 119.712 46.4402 118.721C45.4724 116.836 44.5139 114.947 43.536 113.068C43.4857 112.97 43.4345 112.873 43.3834 112.774C43.1804 112.385 43.5134 111.981 43.9302 112.063C45.9635 112.464 47.9771 112.956 49.9658 113.539C50.0553 113.635 50.1869 113.663 50.3043 113.639C50.3843 113.663 50.4645 113.686 50.5444 113.711C50.5202 113.66 50.4951 113.611 50.4707 113.561C50.552 113.49 50.5924 113.381 50.5396 113.244C49.3953 110.29 47.8264 107.439 45.9675 104.828C46.0423 104.829 46.1169 104.83 46.192 104.832C48.2323 104.888 50.2342 105.18 52.2007 105.737C52.21 105.554 52.1001 105.273 52.0406 105.138C51.8024 104.602 51.529 104.079 51.2732 103.551C50.7499 102.467 50.2266 101.384 49.7033 100.3C49.1917 99.2416 48.6844 98.1796 48.203 97.1058C47.9506 96.5427 47.6981 95.979 47.4465 95.4153C47.2411 94.9563 47.0792 94.4941 46.909 94.0244C46.4092 94.1712 39.9911 94.203 38.4313 94.3113C38.0488 94.3381 37.6656 94.3625 37.2823 94.3834C36.9771 94.4011 36.5469 94.4682 36.3364 94.1922L36.2567 94.2592C36.9494 95.0881 37.6136 95.9396 38.2795 96.7902ZM63.3369 81.391C63.3051 81.3767 63.274 81.3625 63.243 81.3482C63.2271 81.3709 63.2078 81.3918 63.1876 81.4128C63.1373 81.464 63.0878 81.5193 63.0359 81.5697C63.1365 81.5109 63.2371 81.4513 63.3369 81.391ZM18.4836 128.538C18.5415 127.315 18.606 126.093 18.6748 124.871C18.8107 122.482 18.9507 120.092 19.1377 117.706C19.5176 112.872 19.8715 108.039 20.441 103.221C20.68 101.202 21.0137 99.198 21.3484 97.1929C21.3056 97.1543 21.262 97.1157 21.2192 97.0781C21.2653 97.6266 20.5206 97.974 20.1516 97.427C20.124 97.386 20.0971 97.3448 20.0703 97.3021C19.7508 96.7853 19.0144 94.25 19.0656 94.0352C19.1579 93.6485 19.4145 93.3046 19.6149 92.964C19.7902 92.6661 19.9671 92.3683 20.1466 92.073C20.5047 91.4815 20.8737 90.896 21.2603 90.323C22.0612 89.1368 22.9367 87.9975 23.9682 87.0017C25.0358 85.9698 26.2611 85.1216 27.5265 84.3524C28.1346 83.9832 28.7618 83.6485 29.4009 83.3364C30.0315 83.0293 30.7217 82.6896 31.401 82.5151C31.4396 82.505 31.479 82.5588 31.4438 82.5873C31.2635 82.7299 31.0748 82.8641 30.8828 82.9933C31.4027 82.813 31.9386 82.6829 32.4787 82.6367C33.5244 82.2693 34.5828 81.9329 35.6235 81.5495C36.6467 81.1719 37.6547 80.7475 38.3348 79.8532C38.916 79.0889 39.2833 78.1536 39.5659 77.2425C39.8762 76.2383 39.9995 75.1946 40.2863 74.1887C40.309 74.1073 40.4423 74.0981 40.4599 74.1887C40.6645 75.2441 40.6553 76.4304 40.5387 77.4958C40.4163 78.6132 40.1018 79.7098 39.4175 80.6183C38.6225 81.6745 37.544 82.2626 36.3305 82.7315C35.3518 83.1108 34.3605 83.4966 33.3584 83.8355C33.4892 83.9212 33.6217 84.0067 33.7584 84.0881C34.3018 84.4111 34.8671 84.698 35.4449 84.9556C36.4999 85.4261 37.6111 85.7786 38.729 86.0646C40.8096 86.5948 42.9431 86.8641 45.0883 86.8994C49.3804 86.9707 53.7203 86.0714 57.646 84.3348C58.7513 83.8457 59.8306 83.3079 60.899 82.7433C61.2328 82.5671 61.5682 82.3892 61.902 82.2063C61.8743 82.2047 61.8458 82.2022 61.8182 82.1996C61.0726 82.1292 60.3363 81.9858 59.6151 81.7828C58.1383 81.3658 56.7226 80.7157 55.3322 80.0755C54.1531 79.5327 52.9387 78.9144 52.2184 77.7836C51.8334 77.1787 51.6565 76.469 51.5131 75.7744C51.3529 75.0009 51.1642 74.224 51.0476 73.443C51.0065 73.1695 51.0678 72.7995 51.3613 72.6704C51.4787 72.6191 51.5751 72.5771 51.7068 72.5771C51.9978 72.5771 52.2963 72.7886 52.366 73.0789C52.5379 73.8029 52.6419 74.547 52.7769 75.2785C52.8935 75.911 53 76.5714 53.3413 77.1275C53.9375 78.1016 55.1066 78.5998 56.0945 79.0739C57.3466 79.6745 58.5995 80.26 59.9002 80.7475C60.473 80.9622 61.0558 81.1569 61.6471 81.3162C61.6236 81.1712 61.6437 81.0184 61.7293 80.9035C61.8718 80.7139 62.0337 80.5881 62.2174 80.443C62.4169 80.2852 62.6853 80.2031 62.921 80.2727C62.921 80.2735 62.9218 80.2727 62.9218 80.2727C63.0174 80.2517 63.1231 80.26 63.2321 80.3095C63.5692 80.464 63.9055 80.6199 64.2418 80.7786C69.0799 83.0554 73.7804 85.7298 77.3404 89.8028C77.8536 90.3901 78.3342 91.0076 78.7845 91.6443C79.2223 92.2626 79.764 92.9338 79.8848 93.7005C79.8948 93.7643 79.8018 93.7937 79.7858 93.7282C79.7573 93.6099 79.7187 93.4941 79.6709 93.3817C79.7707 93.7308 79.7649 94.1016 79.624 94.4664C79.4571 94.8959 79.151 95.1804 78.7644 95.2936C79.1527 96.9959 79.4135 98.7207 79.6231 100.465C79.9242 102.977 80.1381 105.496 80.2991 108.021C80.6211 113.06 80.7645 118.125 80.6605 123.174C80.6312 124.601 80.5825 126.028 80.5087 127.454C80.4718 128.167 80.4316 128.879 80.3854 129.592C80.3402 130.294 80.3771 131.066 79.7657 131.436C79.7582 131.464 79.7498 131.491 79.7422 131.518C79.5938 132.036 78.9321 131.87 78.87 131.4C78.8692 131.395 78.8684 131.389 78.8675 131.384C78.3677 131.003 78.4432 130.367 78.4801 129.757C78.5195 129.098 78.5614 128.44 78.5966 127.783C78.6637 126.521 78.7208 125.259 78.7719 123.997C78.8717 121.5 78.9279 119 78.9464 116.502C78.9833 111.504 78.6948 106.514 78.3526 101.531C78.2092 99.4463 78.0415 97.3708 77.9903 95.2869C77.7228 95.1476 77.6406 94.7517 77.7748 94.4849C74.6064 96.6476 71.6662 99.2332 69.3055 102.238C68.9113 102.74 68.5348 103.257 68.1741 103.783C68.0567 103.954 67.9452 104.132 67.8328 104.31C67.9418 104.805 68.0265 105.31 68.1372 105.785C68.3654 106.768 68.4618 107.787 68.5926 108.785C68.8585 110.813 69.0455 112.859 69.204 114.898C69.516 118.924 69.7474 122.949 69.8204 126.987C69.8606 129.27 69.9143 131.568 69.8137 133.851C69.8883 134.297 69.4866 134.733 69.0664 134.789C68.6983 134.839 68.3545 134.648 68.1934 134.34C67.0462 134.482 65.8687 134.548 64.729 134.556C63.1935 134.567 61.658 134.565 60.1224 134.533C57.0505 134.466 53.9795 134.387 50.9084 134.295C44.7663 134.114 38.6241 133.932 32.4812 133.75C30.7779 133.7 29.0747 133.649 27.3714 133.599C26.6032 133.576 25.6455 133.798 25.04 133.205C24.936 133.102 24.8555 132.982 24.7985 132.854C24.6173 132.899 24.3951 132.855 24.276 132.715C24.0538 132.452 23.8902 132.209 23.8986 131.845C23.9062 131.504 24.0001 131.145 24.0487 130.808C24.141 130.175 24.2299 129.541 24.3146 128.907C24.4815 127.653 24.6375 126.399 24.7809 125.143C25.0744 122.575 25.3411 120.001 25.5491 117.424C25.9617 112.33 26.0782 107.208 26.064 102.097C26.0623 101.64 26.0598 101.183 26.0573 100.726C26.038 100.75 26.017 100.773 25.9944 100.792C25.9759 100.808 25.9575 100.824 25.939 100.841C25.7243 101.029 25.3671 101.127 25.1096 100.948C24.7934 100.743 24.5754 100.436 24.3288 100.159C24.0697 99.8675 23.803 99.5839 23.5338 99.3021C23.0122 98.7568 22.473 98.234 21.9228 97.7172C21.8784 97.6762 21.8339 97.6343 21.7895 97.5939C21.7861 99.2206 21.7878 100.847 21.7442 102.472C21.6788 104.888 21.548 107.3 21.428 109.712C21.1899 114.488 20.9433 119.263 20.706 124.038C20.6397 125.371 20.5768 126.705 20.5106 128.038C20.477 128.705 20.4443 129.372 20.4124 130.039C20.3957 130.399 20.3789 130.761 20.3621 131.122C20.3437 131.509 20.368 131.924 20.2372 132.292C19.9395 133.134 18.653 133.253 18.4056 132.292C18.2505 131.689 18.3695 130.991 18.3972 130.372C18.4257 129.761 18.4542 129.149 18.4836 128.538Z" fill="#0C0C0C"/>
<path fill-rule="evenodd" clip-rule="evenodd" d="M41.3279 78.7407C43.1893 78.7517 44.7713 78.2233 45.9784 77.3493C47.4847 76.8119 49.3017 75.9831 50.4054 75.1131C50.8358 75.223 51.3509 74.7655 51.6803 74.5241C53.7287 72.994 55.3365 70.7543 55.8129 68.5108C56.5484 69.4395 57.595 69.4781 58.5976 69.0165C60.6992 67.8243 60.6206 65.3138 59.864 63.4381C61.4547 59.8679 62.557 50.4429 60.129 46.6391C59.6323 46.07 58.9035 45.7295 58.3787 45.1459C57.9118 44.6362 57.4676 44.1148 56.9244 43.7114C55.2667 42.4493 52.4117 41.7774 50.6241 41.4613C43.1618 39.8474 37.4282 42.7483 30.6687 45.1951C31.0577 46.1683 31.5959 47.0558 32.2126 47.8833C30.5345 48.5099 31.3053 49.9187 32.6072 50.6329L33.3822 50.2561C32.174 54.5804 29.3935 65.3339 30.5932 68.7872C31.5499 74.1748 35.7486 78.7798 41.3279 78.7407Z" fill="white"/>
<path fill-rule="evenodd" clip-rule="evenodd" d="M40.2497 79.2046C42.6666 79.4528 45.5379 78.8812 47.1492 76.9172C47.1974 76.8584 47.2185 76.7918 47.2197 76.7276C47.2211 76.6561 47.1971 76.587 47.1557 76.5333C47.1122 76.4769 47.0501 76.4375 46.9791 76.4247C46.9192 76.414 46.851 76.4209 46.7807 76.4604L46.6325 76.5429C45.5321 77.1509 44.3893 77.6693 43.1422 77.8913C41.8582 78.1197 40.5508 78.0941 39.2782 77.804C36.9602 77.2757 35.0842 75.9279 33.7033 74.1508C32.1624 72.1676 31.2371 69.6502 31.0012 67.1326C30.7154 64.0815 31.3784 61.049 32.0644 58.0948C32.7851 54.9907 33.5729 51.9024 34.4881 48.85C34.5157 48.7581 34.5231 48.6721 34.5152 48.5929C34.7851 48.4871 35.0724 48.5165 35.3583 48.613C35.8807 48.7895 36.4012 49.1874 36.8352 49.5159C36.9924 49.6348 37.1387 49.7454 37.2701 49.8354C37.8083 50.2038 38.3967 50.4689 39.0546 50.5106C39.7388 50.5538 40.4097 50.3411 41.0311 50.0749C41.3468 49.9396 41.6575 49.7993 41.9669 49.6596C42.8478 49.2616 43.7184 48.8676 44.6698 48.6116C45.9446 48.2684 47.2607 48.0994 48.5809 48.1115C50.9371 48.133 53.3005 48.7397 54.7446 50.7332C55.3295 51.5407 55.7109 52.4688 55.4135 53.4654C55.2517 54.0076 54.9463 54.4997 54.613 54.9524L54.4987 55.1065C54.3159 55.355 54.1571 55.6025 54.1092 55.866C54.0691 56.0867 54.1004 56.3202 54.258 56.5761C54.3571 56.7372 54.4833 56.8817 54.6102 57.0257C54.7018 57.1296 54.7936 57.2332 54.8725 57.3449C55.0317 57.5699 55.1726 57.8123 55.2832 58.0651C55.4996 58.56 55.5914 59.0924 55.6106 59.6292C55.6339 60.277 55.5428 60.9106 55.4525 61.5452C55.3885 61.9951 55.3246 62.4455 55.2988 62.9013C55.2943 62.9809 55.3186 63.0401 55.3527 63.084C55.3943 63.1377 55.4551 63.1715 55.5243 63.1809C55.5454 63.1837 55.5671 63.1842 55.589 63.1822C55.5782 63.2261 55.5687 63.2701 55.5605 63.3143C55.6043 63.2581 55.6508 63.2035 55.6999 63.1507C55.703 63.1492 55.7062 63.1475 55.7092 63.1458C55.7599 63.118 55.8028 63.0756 55.8298 63.021C55.8994 62.9563 55.973 62.895 56.0503 62.8373C56.4523 62.5373 56.9218 62.3594 57.3927 62.3535C57.8467 62.3478 58.3018 62.5024 58.6518 62.829C59.3473 63.4781 59.551 64.5377 59.5583 65.4475C59.5657 66.3762 59.3508 67.4908 58.5414 68.0674C58.2167 68.2987 57.8201 68.4377 57.4206 68.4417C57.0894 68.445 56.7725 68.3278 56.4605 68.2161C56.3643 68.1817 56.2686 68.1475 56.173 68.1164C56.0645 68.081 55.9656 68.0833 55.8794 68.1091C55.7822 68.1382 55.6997 68.1983 55.6381 68.2785C55.5768 68.3584 55.5365 68.4584 55.5241 68.5631C55.512 68.6645 55.5259 68.7698 55.5688 68.8647C55.5796 68.8886 55.5909 68.9119 55.6028 68.9345L55.4247 69.2274C54.743 70.3458 54.0494 71.4437 53.1399 72.405C52.6178 72.9568 52.0644 73.4775 51.4574 73.9333L51.3698 73.9983C51.3175 74.0368 51.2593 74.0842 51.1974 74.1349C51.0203 74.2798 50.8081 74.4741 50.61 74.4817C50.5512 74.484 50.4999 74.4767 50.4532 74.4705C50.3404 74.4557 50.2458 74.4514 50.1528 74.4893C50.078 74.5199 50.0004 74.5769 49.9206 74.6946C49.8667 74.7743 49.839 74.8742 49.839 74.9756C49.839 75.0775 49.867 75.1794 49.9169 75.2599C50.02 75.4266 50.1448 75.5299 50.2801 75.5885C50.431 75.6539 50.5978 75.6639 50.7712 75.6315C51.1982 75.5519 51.671 75.198 51.9719 74.9671L52.0301 74.9225C52.6967 74.4138 53.3284 73.851 53.8838 73.2216C54.8296 72.1497 55.6791 70.8867 56.1154 69.5066C56.4229 69.7086 56.8028 69.8046 57.2001 69.8197C57.7788 69.8417 58.3914 69.6927 58.8428 69.4786C59.8375 69.0067 60.4417 68.1142 60.7249 67.0878C61.0537 65.8958 60.9468 64.5254 60.5306 63.4547C60.5185 63.4235 60.5059 63.3925 60.493 63.3611C61.7745 60.113 62.1686 56.5062 62.0588 53.0399C62.0075 51.4174 61.897 49.7151 61.5144 48.1327C61.3429 47.4234 61.0449 46.748 60.5691 46.1896C60.2978 45.8712 59.965 45.6234 59.6306 45.3762C59.341 45.162 59.0503 44.9484 58.8057 44.6811L58.69 44.5541C58.665 44.5265 58.6399 44.499 58.615 44.4714C58.1926 44.0057 57.7813 43.5538 57.2687 43.1718C56.6742 42.7289 56.0182 42.3823 55.3365 42.0944C53.868 41.4744 52.2874 41.1027 50.7239 40.8151C47.3412 40.193 43.8687 40.1623 40.5275 41.0367C38.974 41.4432 37.4664 41.9997 35.9613 42.5554C35.8216 42.607 35.6819 42.6586 35.5421 42.7101C34.3725 43.1409 33.2023 43.5698 32.0321 43.9988C31.4882 44.1982 30.9443 44.3975 30.4005 44.5971C30.2825 44.6404 30.167 44.7337 30.1012 44.8496C30.037 44.9627 30.0179 45.0946 30.0697 45.2259C30.4034 46.0717 30.8244 46.8651 31.3369 47.6061C31.1588 47.7273 31.0073 47.8884 30.8926 48.077C30.7476 48.3156 30.6617 48.598 30.6559 48.8976C30.6364 49.9011 31.5492 50.5813 32.3065 51.0733C32.3771 51.1192 32.447 51.1463 32.5145 51.1587C31.7807 53.9655 31.0783 56.7819 30.4814 59.6205L30.4403 59.8173C29.8254 62.7881 29.4287 65.8198 30.0102 68.8301C30.5109 71.4222 31.6742 73.924 33.4919 75.855C35.2732 77.7476 37.6635 78.939 40.2497 79.2046ZM56.1644 62.1148C56.4808 61.1101 56.6486 60.017 56.5275 58.9986C56.4512 58.3584 56.2588 57.7422 55.9456 57.1779C55.7661 56.8548 55.5475 56.5556 55.3088 56.2738L55.2265 56.1792C55.1848 56.1308 55.1433 56.0864 55.1305 56.0307C55.123 55.9984 55.1306 55.963 55.1503 55.9207C55.1939 55.827 55.2748 55.7368 55.3506 55.6487C55.3988 55.5927 55.4459 55.5377 55.4854 55.4842C56.179 54.545 56.6962 53.4268 56.5281 52.2358C56.3641 51.0737 55.6027 49.9905 54.7923 49.1742C53.0076 47.3767 50.2407 46.9636 47.8169 47.0628C46.4059 47.1205 44.9972 47.3692 43.6535 47.8038C42.9909 48.0181 42.3431 48.2791 41.7135 48.5783L41.5741 48.6452C41.4989 48.6817 41.4237 48.7185 41.3485 48.7554C40.8564 48.9968 40.3624 49.2406 39.8282 49.3719C38.785 49.6281 38.0773 49.0884 37.3335 48.5441C37.0785 48.3575 36.8197 48.1684 36.5446 48.0024L36.488 47.9689C35.9917 47.6811 35.3981 47.4875 34.8279 47.4961C34.3325 47.5037 33.8547 47.6619 33.4656 48.0358C33.3857 48.1126 33.3398 48.1964 33.3182 48.2798C33.2751 48.3402 33.2404 48.4122 33.2178 48.4972C33.0784 49.0203 32.9396 49.5439 32.8014 50.0675L32.6883 49.9946C32.3533 49.777 31.9892 49.5283 31.8247 49.1642C31.7614 49.0241 31.7704 48.7906 31.8502 48.619C31.878 48.559 31.9149 48.5057 31.9659 48.4724C32.0029 48.4482 32.0476 48.4368 32.0995 48.441C32.2257 48.4572 32.3416 48.4388 32.4399 48.3972C32.5533 48.3493 32.6437 48.2704 32.7023 48.1754C32.7624 48.0781 32.7897 47.9637 32.7751 47.8451C32.7624 47.7431 32.7186 47.6366 32.6317 47.5365C32.0603 46.8776 31.5791 46.1508 31.2134 45.362L33.6325 44.4666C34.4951 44.1475 35.3578 43.8289 36.2209 43.5114L36.6935 43.3377C38.2629 42.7619 39.8414 42.1991 41.4735 41.8284C44.7172 41.0916 48.0996 41.2648 51.3342 41.9583L51.5296 42.0005C52.887 42.2966 54.2626 42.6548 55.5085 43.2775C56.12 43.5831 56.7013 43.9548 57.2005 44.4243C57.4209 44.6317 57.6202 44.8587 57.8196 45.0854C58.099 45.4031 58.3788 45.72 58.711 45.9877L59.0194 46.2347C59.4781 46.6045 59.8919 46.9648 60.1508 47.5383C60.4215 48.1378 60.5507 48.8002 60.6561 49.4455C60.9219 51.0712 61.0268 52.723 61.0168 54.3697C60.9999 57.1346 60.58 59.8433 60.0495 62.5423C59.6239 61.933 59.026 61.4606 58.2586 61.3599C57.7583 61.2942 57.2623 61.3875 56.8322 61.6088C56.5836 61.7367 56.357 61.9074 56.1644 62.1148ZM56.9684 65.3979C57.5287 65.1808 58.1171 65.1097 58.71 65.2135C58.7721 65.2243 58.8313 65.2114 58.8811 65.1825C58.9316 65.1531 58.9714 65.1067 58.993 65.0555C59.0179 64.9962 59.0192 64.9321 58.9972 64.8752C58.9781 64.8258 58.9416 64.7778 58.8746 64.7458C58.2327 64.4393 57.5191 64.3041 56.8109 64.4003L56.7409 64.4102C56.3788 64.464 55.8697 64.577 55.4879 64.7995C55.1879 64.9744 54.9683 65.2154 54.9137 65.5302C54.8852 65.6943 54.9259 65.8656 55.0205 65.9897C55.1119 66.1098 55.2516 66.1898 55.4324 66.1846C55.7515 66.1756 55.9403 66.0407 56.1676 65.866C56.1952 65.8448 56.2234 65.8231 56.2528 65.8011C56.4724 65.6367 56.7124 65.4971 56.9684 65.3979Z" fill="#0C0C0C"/>
<path fill-rule="evenodd" clip-rule="evenodd" d="M43.6129 69.2778C43.0047 69.1604 42.248 69.4162 41.6414 69.5283L41.5962 69.5365C40.8606 69.665 40.1267 69.8204 39.383 69.8962C38.673 69.9688 37.9479 69.9818 37.2378 69.9001C36.8969 69.8609 36.5588 69.7941 36.2275 69.7045C36.0858 69.6662 35.9453 69.6234 35.8064 69.5759L35.7907 69.5699C35.6886 69.5277 35.4127 69.369 35.416 69.4574C35.3384 69.3679 35.2316 69.3044 35.1143 69.2735C34.9487 69.23 34.7362 69.2709 34.5977 69.388C34.4174 69.2452 34.1471 69.3476 34.0262 69.5186C33.819 69.8118 33.8864 70.1555 33.9132 70.4956L33.9154 70.5256C33.9382 70.8463 33.973 71.1647 34.016 71.483L34.0349 71.6194C34.1017 72.0901 34.1201 72.8664 34.6902 73.0207C35.1412 73.1428 35.5539 72.6786 35.8446 72.3103L36.0037 72.1063C36.1921 71.8671 36.3632 71.6209 36.5011 71.349C36.5639 71.2252 36.6246 71.0985 36.6772 70.97C36.6838 70.9538 36.6887 70.9393 36.6937 70.9247C37.53 71.0373 38.3861 71.0212 39.2246 70.9106C39.7554 70.8406 40.2784 70.7394 40.7935 70.6035L41.0258 71.0237C41.2978 71.5137 41.5736 72.0023 41.8636 72.4812L41.8861 72.5177C42.1575 72.9496 42.6119 73.3822 43.1492 73.0587C43.63 72.7691 43.6504 72.1104 43.7011 71.6189C43.7349 71.2905 43.7623 70.9599 43.7755 70.6298L43.7802 70.4883C43.7889 70.1682 43.841 69.7971 43.7179 69.4977C43.7001 69.4541 43.6374 69.4205 43.5997 69.4664C43.3427 69.779 43.2649 70.2635 43.1539 70.6471C43.0303 71.074 42.8512 71.5402 42.787 71.9829L42.769 71.9517C42.7058 71.8315 42.6412 71.7119 42.5763 71.5924L42.3817 71.2341C42.2072 70.9106 42.0295 70.5892 41.8502 70.2684C42.055 70.1915 42.2578 70.1088 42.4598 70.0248L42.9183 69.833C43.1802 69.7224 43.4473 69.5975 43.6441 69.3961C43.679 69.3605 43.6669 69.2881 43.6129 69.2778ZM34.9148 70.4597C35.3666 70.6434 35.8339 70.776 36.3096 70.8639C36.2789 70.8954 36.2483 70.9268 36.2198 70.9599C36.1079 71.0895 35.9891 71.214 35.8696 71.3371L35.7979 71.4108C35.6149 71.5986 35.34 71.9079 35.0595 72.0877L35.0443 72.0066C35.0418 71.9926 35.0399 71.9804 35.0389 71.971L35.009 71.7042C35.0041 71.6597 34.9994 71.6152 34.995 71.5706C34.9709 71.3299 34.9516 71.0887 34.9315 70.8477C34.921 70.7207 34.9184 70.5902 34.9148 70.4597ZM40.2611 54.9507C39.1852 54.491 37.9082 54.708 36.9814 55.4024C36.0331 56.1131 35.6184 57.2685 35.5635 58.4212C34.8135 57.7806 33.7335 58.2655 33.1018 58.8657C32.3729 59.5584 32.0042 60.6038 32.1741 61.5959C32.3434 62.5847 33.0587 63.457 34.0264 63.751C34.4894 63.8917 35.0054 63.8949 35.4712 63.764C35.6294 63.7195 35.8232 63.6505 36.0022 63.5545C35.992 63.5956 35.9816 63.6368 35.9719 63.6778C35.7395 64.6618 35.6077 65.7678 35.9564 66.7409C36.5169 68.3045 38.5076 69.1799 39.7504 67.792C40.2384 67.2471 40.6177 66.3937 40.5882 65.6509C40.5727 65.2605 40.3516 64.8089 39.8952 64.8353C39.5413 64.8557 39.3735 65.152 39.4641 65.4656L39.4696 65.4837C39.6615 66.0831 39.3339 66.9492 38.8594 67.358C38.1316 67.9849 37.1329 67.4394 36.7349 66.7042C36.2712 65.8474 36.3276 64.7489 36.4759 63.8168C36.6215 62.9015 36.9461 62.0644 37.2907 61.2175C37.3273 61.2241 37.3643 61.2302 37.4022 61.2353C38.0876 61.3284 39.482 61.3634 40.2392 60.8668C40.1578 61.6333 40.3174 62.4224 40.7527 63.0715C41.2378 63.7948 41.9686 64.1776 42.8191 64.2949C43.6452 64.409 44.6027 64.4321 45.4183 64.2363C47.155 63.8193 47.7674 61.6744 47.2421 60.1261C46.9314 59.2103 46.0645 58.3865 45.1008 58.1785C44.6043 57.8518 43.9377 57.7551 43.3647 57.7996C42.509 57.8663 41.6662 58.2362 41.093 58.8858C40.8741 59.1339 40.694 59.4149 40.5552 59.7155C40.5086 59.6788 40.4543 59.6512 40.3929 59.6368C40.297 59.6143 40.2132 59.6092 40.1194 59.6423C40.0727 59.6588 40.0053 59.7172 39.9648 59.7551L39.8723 59.8639C39.7588 59.9961 39.651 60.1071 39.449 60.1893C38.8859 60.4186 38.1223 60.4683 37.5241 60.4214C35.9978 60.3019 36.19 58.2795 36.566 57.2405C37.0113 56.0097 38.2877 55.244 39.5862 55.4626C40.1441 55.5565 40.6764 55.8535 41.0848 56.2417C41.5407 56.6751 41.7359 57.1986 42.0094 57.7472C42.0256 57.7796 42.0815 57.7726 42.0884 57.7368C42.3132 56.5801 41.2474 55.3722 40.2611 54.9507ZM48.3905 64.2764C48.4368 64.222 48.376 64.1262 48.3095 64.1714C47.8231 64.502 47.2821 64.7406 46.6939 64.8051C46.4177 64.8353 46.1393 64.8374 45.8641 64.795C45.6297 64.7588 45.4184 64.6873 45.1845 64.7519C45.0599 64.7863 45.0373 64.9308 45.1134 65.0215C45.4668 65.4423 46.3371 65.3299 46.8116 65.2171C47.4252 65.0713 47.9815 64.7571 48.3905 64.2764ZM32.0194 63.5079C31.7806 63.3599 31.4963 63.6531 31.6375 63.8899C32.0002 64.4975 33.0512 64.547 33.661 64.4016C33.7087 64.3903 33.6978 64.3154 33.6495 64.3167C33.299 64.3254 32.9823 64.258 32.6804 64.0751C32.4224 63.9188 32.2685 63.6623 32.0194 63.5079ZM43.6733 58.6506L43.7212 58.651C44.2787 58.66 44.7892 58.8727 45.3265 58.9851C45.371 58.9945 45.4157 58.9897 45.456 58.9749C46.1103 59.4116 46.5613 60.0982 46.6226 61.0016C46.665 61.6274 46.5123 62.3092 46.1409 62.8227C45.7181 63.4071 45.0371 63.4973 44.3664 63.5148L44.2982 63.5163C43.0304 63.541 41.6356 63.4661 41.1836 62.0482C40.8492 60.9988 41.2063 59.7248 42.138 59.0962C42.5905 58.7909 43.1308 58.6501 43.6733 58.6506ZM33.4588 59.4032L33.496 59.3598C33.9933 58.789 34.7817 58.2692 35.5591 58.5566L35.5568 58.6528C35.5565 58.6688 35.5564 58.6848 35.5564 58.7009C35.5588 59.803 35.9857 60.8316 37.0351 61.1551C36.7536 61.5568 36.5274 62.0026 36.3462 62.4653C36.2823 62.4235 36.2046 62.397 36.1143 62.3879C35.7449 62.3504 35.5333 62.6975 35.2129 62.8269C34.913 62.9483 34.5729 62.9795 34.2563 62.9169C33.5637 62.7799 33.0778 62.1825 32.9076 61.5196C32.7151 60.7702 32.9694 59.9845 33.4588 59.4032ZM44.001 60.3308C43.7701 59.9406 43.2004 59.997 42.972 60.3411L42.9611 60.3582L42.9586 60.3551C42.5782 60.8482 42.7621 61.627 43.3144 61.9043C43.7574 62.1265 44.3209 62.0682 44.6154 61.6356C44.6814 61.5386 44.7238 61.4245 44.7393 61.309C44.7499 61.2304 44.7438 61.1519 44.7262 61.0738L44.7307 61.092C44.7219 61.0526 44.7081 60.9908 44.7045 60.9761C44.6656 60.8171 44.5722 60.6464 44.4554 60.5312C44.3351 60.4126 44.1679 60.3405 44.001 60.3308ZM34.5104 59.9254C34.3059 59.9254 34.1244 60.011 33.9766 60.1467C33.7665 60.3397 33.7372 60.6176 33.7826 60.8812C33.7965 60.9617 33.8156 61.0395 33.8357 61.1186L33.8529 61.1903C33.8559 61.2022 33.8592 61.214 33.8628 61.2256C33.8754 61.2747 33.8954 61.3197 33.9193 61.3629C34.0067 61.6886 34.3609 61.8504 34.6731 61.7793C34.82 61.7458 34.9665 61.6239 35.0414 61.496C35.066 61.4539 35.0833 61.4119 35.0955 61.3698L35.1563 61.2256C35.1677 61.191 35.1749 61.154 35.184 61.1186C35.2044 61.0395 35.224 60.9616 35.2382 60.8812C35.2864 60.6088 35.248 60.3505 35.0441 60.1467C34.9073 60.0097 34.7039 59.9254 34.5104 59.9254ZM39.0158 57.0996C38.6608 57.052 38.2992 57.2174 38.1157 57.5311C37.9562 57.8038 37.9568 58.1706 38.1157 58.4433L38.1291 58.4663C38.4217 58.9685 39.1041 59.033 39.5146 58.6449L39.5345 58.6262C39.7985 58.3767 39.8579 57.9631 39.7212 57.6391C39.5963 57.3428 39.3343 57.1425 39.0158 57.0996Z" fill="#0C0C0C"/>
<path fill-rule="evenodd" clip-rule="evenodd" d="M30.2661 64.2264C31.2843 65.2788 32.984 65.5808 34.3386 65.0164C37.817 63.5626 36.1144 59.0282 33.4319 57.8105C33.0968 57.7269 32.6492 57.5287 32.2411 57.4837C32.2042 57.4656 32.1238 57.518 32.0265 57.4685C29.0685 57.7988 28.3949 62.3921 30.2661 64.2264ZM41.4851 64.4957C42.6271 66.0109 44.7502 66.4784 46.4848 65.774C49.9116 64.424 48.6962 60.4031 46.3516 58.8268C41.3989 56.9651 39.3537 61.702 41.4851 64.4957ZM48.9137 61.1385C48.9169 61.137 48.9201 61.1363 48.9234 61.1347C48.9052 61.1268 48.8871 61.1188 48.8691 61.1107C48.875 61.126 48.8813 61.1412 48.887 61.1566C48.8959 61.1504 48.9037 61.1433 48.9137 61.1385ZM27.9085 59.5007C28.1881 59.5013 28.592 59.5472 28.8235 59.7413C29.3943 57.8157 31.5011 56.0336 33.3333 57.3331C34.7762 57.7972 35.8468 58.8267 36.4554 60.1953C37.5525 59.5425 39.2778 59.8212 40.2292 60.6846C40.8523 58.6249 42.3858 57.9037 44.2111 57.7972C46.2033 57.4708 48.1891 59.4063 48.8086 60.959C49.3238 60.9003 50.0936 60.7363 50.5782 61.0544C53.7237 60.2292 59.223 59.7743 59.8625 60.2327C60.3182 60.4076 60.5683 61.4837 59.9317 61.5417C59.3771 61.4629 59.9965 60.7533 59.4374 60.6759C56.4583 60.4911 53.5663 61.0913 50.6187 61.3431C50.3556 61.6972 49.5053 61.8157 49.0517 61.6734C49.7661 64.3073 48.2239 66.0993 45.913 66.636C42.3348 67.4582 39.2217 64.2562 40.1574 60.9257C39.0735 60.3863 37.8267 60.4094 36.6459 60.6936C38.619 67.9578 26.9237 67.6319 28.7503 59.9902C27.5348 60.5951 27.2708 59.6227 27.9085 59.5007Z" fill="#0C0C0C"/>
</svg>
